<svg width="403" height="100" viewBox="0 0 403 100" fill="none" xmlns="http://www.w3.org/2000/svg">
<rect x="3" y="3" width="397" height="94" rx="3" fill="#F1F1F1" stroke="#01796F" stroke-width="6"/>
<path d="M29.892 32.248H16.02V26.4H50.224V32.248H36.352V74H29.892V32.248ZM47.0269 40.68H54.2349L60.6269 67.268L67.6989 41.7H74.0229L81.1629 67.268L87.5549 40.68H94.7629L84.6989 74H77.8309L70.8949 49.384L63.8909 74H57.0229L47.0269 40.68ZM99.6324 26.4H105.752V33.2H99.6324V26.4ZM99.6324 40.68H105.752V74H99.6324V40.68ZM130.499 40C139.565 40 144.099 45.2133 144.099 55.64V74H137.979V55.64C137.979 52.0587 137.299 49.4747 135.939 47.888C134.624 46.256 132.403 45.44 129.275 45.44C127.28 45.44 125.467 45.8027 123.835 46.528C122.203 47.2533 120.979 48.3413 120.163 49.792V74H114.043V40.68H118.803L119.483 44.216C121.251 42.6293 123.019 41.5413 124.787 40.952C126.6 40.3173 128.504 40 130.499 40ZM168.592 26.4H184.3C189.378 26.4 193.322 27.6467 196.132 30.14C198.988 32.588 200.416 36.4867 200.416 41.836C200.416 47.0947 198.988 50.9933 196.132 53.532C193.276 56.0707 189.332 57.34 184.3 57.34H175.392V74H168.592V26.4ZM183.348 51.56C186.839 51.56 189.446 50.7667 191.168 49.18C192.891 47.5933 193.752 45.168 193.752 41.904C193.752 38.5947 192.914 36.1467 191.236 34.56C189.604 32.9733 186.975 32.18 183.348 32.18H175.392V51.56H183.348ZM205.816 26.4H211.936V33.2H205.816V26.4ZM205.816 40.68H211.936V74H205.816V40.68ZM236.682 40C245.749 40 250.282 45.2133 250.282 55.64V74H244.162V55.64C244.162 52.0587 243.482 49.4747 242.122 47.888C240.807 46.256 238.586 45.44 235.458 45.44C233.463 45.44 231.65 45.8027 230.018 46.528C228.386 47.2533 227.162 48.3413 226.346 49.792V74H220.226V40.68H224.986L225.666 44.216C227.434 42.6293 229.202 41.5413 230.97 40.952C232.783 40.3173 234.687 40 236.682 40ZM274.191 74.68C270.383 74.68 267.119 73.9093 264.399 72.368C261.724 70.7813 259.684 68.6507 258.279 65.976C256.873 63.3013 256.171 60.332 256.171 57.068C256.171 53.94 256.805 51.084 258.075 48.5C259.389 45.8707 261.271 43.808 263.719 42.312C266.212 40.7707 269.136 40 272.491 40C276.752 40 280.197 41.2467 282.827 43.74C285.501 46.2333 286.839 49.6787 286.839 54.076C286.839 55.2093 286.748 56.2973 286.567 57.34H262.427C262.835 61.6467 264.149 64.7067 266.371 66.52C268.592 68.3333 271.448 69.24 274.939 69.24C278.429 69.24 281.625 68.5827 284.527 67.268L285.343 72.096C281.489 73.8187 277.772 74.68 274.191 74.68ZM280.515 53.124C280.515 50.7213 279.835 48.84 278.475 47.48C277.115 46.12 275.075 45.44 272.355 45.44C269.725 45.44 267.663 46.0973 266.167 47.412C264.671 48.6813 263.605 50.5853 262.971 53.124H280.515ZM302.459 74.68C299.83 74.68 297.518 74.3853 295.523 73.796C293.574 73.1613 292.078 72.4813 291.035 71.756L291.783 65.84C292.69 66.656 294.073 67.4267 295.931 68.152C297.835 68.8773 299.921 69.24 302.187 69.24C304.318 69.24 305.95 68.8773 307.083 68.152C308.262 67.4267 308.851 66.4067 308.851 65.092C308.851 63.5507 308.217 62.3947 306.947 61.624C305.678 60.808 304.091 60.128 302.187 59.584C300.102 59.04 298.334 58.4733 296.883 57.884C295.478 57.2493 294.254 56.2973 293.211 55.028C292.214 53.7587 291.715 52.0813 291.715 49.996C291.715 47.14 292.735 44.76 294.775 42.856C296.815 40.952 299.966 40 304.227 40C306.177 40 307.831 40.204 309.191 40.612C310.551 40.9747 311.911 41.496 313.271 42.176L312.523 47.752C311.435 46.8453 310.234 46.1427 308.919 45.644C307.605 45.1 306.086 44.828 304.363 44.828C302.369 44.828 300.782 45.2133 299.603 45.984C298.47 46.7093 297.903 47.82 297.903 49.316C297.903 50.3133 298.175 51.1293 298.719 51.764C299.263 52.3533 300.034 52.852 301.031 53.26C302.029 53.668 303.57 54.1893 305.655 54.824C308.239 55.5947 310.461 56.6827 312.319 58.088C314.223 59.4933 315.175 61.7147 315.175 64.752C315.175 67.472 314.201 69.8067 312.251 71.756C310.347 73.7053 307.083 74.68 302.459 74.68Z" fill="#01796F"/>
<path d="M342 17L353.258 37.25H330.742L342 17Z" fill="#01796F"/>
<path d="M342.5 40L355.923 63.25H329.077L342.5 40Z" fill="#01796F"/>
<path d="M342 28L354.124 49.75H329.876L342 28Z" fill="#01796F"/>
<rect x="340" y="60" width="5" height="17" fill="#01796F"/>
<path d="M370 17L381.258 37.25H358.742L370 17Z" fill="#01796F"/>
<path d="M370.5 40L383.923 63.25H357.077L370.5 40Z" fill="#01796F"/>
<path d="M370 28L382.124 49.75H357.876L370 28Z" fill="#01796F"/>
<rect x="368" y="60" width="5" height="17" fill="#01796F"/>
</svg>
